# xmcd
# 
# Track frame offsets:
#     150
#     1971
#     15495
#     46739
#     62462
#     81009
#     112139
#     159610
#     167985
#     184418
# 
# Disc length: 2679
# 
# Revision: 3
# Processed by: cddbd v1.5.2PL0 Copyright (c) Steve Scherf et al.
# Submitted via: fre:ac v1.0.31
# 
DISCID=760a750a
DTITLE=Steve Earle - Just An American Boy Disc 2
DYEAR=2003
DGENRE=Rock/Pop
TTITLE0=Audience Intro
TTITLE1=South Nashville Blues
TTITLE2=Rex's Blues - Ft. Worth Blues
TTITLE3=John Walker's Blues
TTITLE4=Jerusalem
TTITLE5=The Unrepentant
TTITLE6=Christmas in Washington
TTITLE7=(Democracy)
TTITLE8=What's So Funny About Peace
TTITLE9=Time You Waste - Justin Earle
EXTD=
EXTT0=
EXTT1=
EXTT2=
EXTT3=
EXTT4=
EXTT5=
EXTT6=
EXTT7=
EXTT8=
EXTT9=
PLAYORDER=
